<mxfile host="65bd71144e">
    <diagram id="R2lEEEUBdFMjLlhIrx00" name="Page-1">
        <mxGraphModel dx="3534" dy="679" grid="1" gridSize="10" guides="1" tooltips="1" connect="1" arrows="1" fold="1" page="1" pageScale="1" pageWidth="850" pageHeight="1100" math="0" shadow="0" extFonts="Permanent Marker^https://fonts.googleapis.com/css?family=Permanent+Marker">
            <root>
                <mxCell id="0"/>
                <mxCell id="1" parent="0"/>
                <mxCell id="6EH58I3_XAjh3CZvvOXK-24" value="" style="edgeStyle=orthogonalEdgeStyle;rounded=0;orthogonalLoop=1;jettySize=auto;html=1;" parent="1" source="6EH58I3_XAjh3CZvvOXK-1" target="6EH58I3_XAjh3CZvvOXK-23" edge="1">
                    <mxGeometry relative="1" as="geometry"/>
                </mxCell>
                <mxCell id="6EH58I3_XAjh3CZvvOXK-26" style="edgeStyle=none;rounded=0;orthogonalLoop=1;jettySize=auto;html=1;exitX=0.25;exitY=0;exitDx=0;exitDy=0;entryX=0.5;entryY=1;entryDx=0;entryDy=0;" parent="1" source="6EH58I3_XAjh3CZvvOXK-1" target="6EH58I3_XAjh3CZvvOXK-27" edge="1">
                    <mxGeometry relative="1" as="geometry">
                        <mxPoint x="1183" y="277.50000000000006" as="targetPoint"/>
                    </mxGeometry>
                </mxCell>
                <mxCell id="6EH58I3_XAjh3CZvvOXK-28" style="edgeStyle=none;rounded=0;orthogonalLoop=1;jettySize=auto;html=1;exitX=0.75;exitY=0;exitDx=0;exitDy=0;entryX=0.5;entryY=1;entryDx=0;entryDy=0;" parent="1" source="6EH58I3_XAjh3CZvvOXK-1" target="6EH58I3_XAjh3CZvvOXK-29" edge="1">
                    <mxGeometry relative="1" as="geometry">
                        <mxPoint x="1343" y="277.50000000000006" as="targetPoint"/>
                    </mxGeometry>
                </mxCell>
                <mxCell id="6EH58I3_XAjh3CZvvOXK-30" style="edgeStyle=none;rounded=0;orthogonalLoop=1;jettySize=auto;html=1;exitX=1;exitY=0;exitDx=0;exitDy=0;entryX=0.5;entryY=1;entryDx=0;entryDy=0;" parent="1" source="6EH58I3_XAjh3CZvvOXK-1" target="6EH58I3_XAjh3CZvvOXK-31" edge="1">
                    <mxGeometry relative="1" as="geometry">
                        <mxPoint x="1423" y="287.50000000000006" as="targetPoint"/>
                    </mxGeometry>
                </mxCell>
                <mxCell id="6EH58I3_XAjh3CZvvOXK-61" style="edgeStyle=none;rounded=0;orthogonalLoop=1;jettySize=auto;html=1;exitX=0;exitY=0.5;exitDx=0;exitDy=0;entryX=1;entryY=0.5;entryDx=0;entryDy=0;" parent="1" source="6EH58I3_XAjh3CZvvOXK-1" target="6EH58I3_XAjh3CZvvOXK-62" edge="1">
                    <mxGeometry relative="1" as="geometry">
                        <mxPoint x="1053" y="377.0652173913045" as="targetPoint"/>
                    </mxGeometry>
                </mxCell>
                <mxCell id="169" style="edgeStyle=none;html=1;exitX=0;exitY=0;exitDx=0;exitDy=0;entryX=1;entryY=1;entryDx=0;entryDy=0;" edge="1" parent="1" source="6EH58I3_XAjh3CZvvOXK-1" target="168">
                    <mxGeometry relative="1" as="geometry"/>
                </mxCell>
                <mxCell id="6EH58I3_XAjh3CZvvOXK-1" value="Property" style="rounded=0;whiteSpace=wrap;html=1;" parent="1" vertex="1">
                    <mxGeometry x="1203" y="347.5" width="120" height="60" as="geometry"/>
                </mxCell>
                <mxCell id="110" style="edgeStyle=none;html=1;exitX=0.25;exitY=0;exitDx=0;exitDy=0;entryX=0.5;entryY=1;entryDx=0;entryDy=0;" parent="1" source="6EH58I3_XAjh3CZvvOXK-3" target="101" edge="1">
                    <mxGeometry relative="1" as="geometry"/>
                </mxCell>
                <mxCell id="111" style="edgeStyle=none;html=1;exitX=0.75;exitY=0;exitDx=0;exitDy=0;entryX=0.5;entryY=1;entryDx=0;entryDy=0;" parent="1" source="6EH58I3_XAjh3CZvvOXK-3" target="104" edge="1">
                    <mxGeometry relative="1" as="geometry"/>
                </mxCell>
                <mxCell id="112" style="edgeStyle=none;html=1;exitX=1;exitY=0.5;exitDx=0;exitDy=0;entryX=0;entryY=0.5;entryDx=0;entryDy=0;" parent="1" source="6EH58I3_XAjh3CZvvOXK-3" target="105" edge="1">
                    <mxGeometry relative="1" as="geometry"/>
                </mxCell>
                <mxCell id="113" style="edgeStyle=none;html=1;exitX=0.5;exitY=1;exitDx=0;exitDy=0;entryX=0.5;entryY=0;entryDx=0;entryDy=0;" parent="1" source="6EH58I3_XAjh3CZvvOXK-3" target="108" edge="1">
                    <mxGeometry relative="1" as="geometry"/>
                </mxCell>
                <mxCell id="115" style="edgeStyle=none;html=1;exitX=0;exitY=0.5;exitDx=0;exitDy=0;entryX=1;entryY=0.5;entryDx=0;entryDy=0;" parent="1" source="6EH58I3_XAjh3CZvvOXK-3" target="99" edge="1">
                    <mxGeometry relative="1" as="geometry"/>
                </mxCell>
                <mxCell id="6EH58I3_XAjh3CZvvOXK-3" value="Appointment" style="rounded=0;whiteSpace=wrap;html=1;" parent="1" vertex="1">
                    <mxGeometry x="363" y="860" width="120" height="60" as="geometry"/>
                </mxCell>
                <mxCell id="163" style="edgeStyle=none;html=1;exitX=0.5;exitY=0;exitDx=0;exitDy=0;entryX=0.5;entryY=1;entryDx=0;entryDy=0;" parent="1" source="6EH58I3_XAjh3CZvvOXK-4" target="160" edge="1">
                    <mxGeometry relative="1" as="geometry"/>
                </mxCell>
                <mxCell id="164" style="edgeStyle=none;html=1;exitX=1;exitY=0;exitDx=0;exitDy=0;entryX=0;entryY=0.5;entryDx=0;entryDy=0;" parent="1" source="6EH58I3_XAjh3CZvvOXK-4" target="158" edge="1">
                    <mxGeometry relative="1" as="geometry"/>
                </mxCell>
                <mxCell id="165" style="edgeStyle=none;html=1;exitX=1;exitY=1;exitDx=0;exitDy=0;entryX=0;entryY=0.5;entryDx=0;entryDy=0;" parent="1" source="6EH58I3_XAjh3CZvvOXK-4" target="159" edge="1">
                    <mxGeometry relative="1" as="geometry"/>
                </mxCell>
                <mxCell id="166" style="edgeStyle=none;html=1;exitX=0;exitY=0;exitDx=0;exitDy=0;entryX=1;entryY=0.5;entryDx=0;entryDy=0;" parent="1" source="6EH58I3_XAjh3CZvvOXK-4" target="155" edge="1">
                    <mxGeometry relative="1" as="geometry"/>
                </mxCell>
                <mxCell id="lEBT6EB-sWjzGuSfx5_Z-167" style="edgeStyle=orthogonalEdgeStyle;rounded=0;orthogonalLoop=1;jettySize=auto;html=1;exitX=0;exitY=1;exitDx=0;exitDy=0;entryX=1;entryY=0.5;entryDx=0;entryDy=0;" parent="1" source="6EH58I3_XAjh3CZvvOXK-4" target="157" edge="1">
                    <mxGeometry relative="1" as="geometry">
                        <Array as="points">
                            <mxPoint x="340" y="510"/>
                            <mxPoint x="340" y="510"/>
                        </Array>
                    </mxGeometry>
                </mxCell>
                <mxCell id="180" style="edgeStyle=none;html=1;exitX=0.75;exitY=0;exitDx=0;exitDy=0;entryX=0.5;entryY=1;entryDx=0;entryDy=0;" edge="1" parent="1" source="6EH58I3_XAjh3CZvvOXK-4" target="179">
                    <mxGeometry relative="1" as="geometry"/>
                </mxCell>
                <mxCell id="6EH58I3_XAjh3CZvvOXK-4" value="Lease Request" style="rounded=0;whiteSpace=wrap;html=1;" parent="1" vertex="1">
                    <mxGeometry x="363" y="450" width="120" height="60" as="geometry"/>
                </mxCell>
                <mxCell id="2" style="edgeStyle=none;html=1;exitX=0.25;exitY=0;exitDx=0;exitDy=0;entryX=0.5;entryY=1;entryDx=0;entryDy=0;" parent="1" source="6EH58I3_XAjh3CZvvOXK-5" target="6EH58I3_XAjh3CZvvOXK-58" edge="1">
                    <mxGeometry relative="1" as="geometry"/>
                </mxCell>
                <mxCell id="3" style="edgeStyle=none;html=1;exitX=0.75;exitY=0;exitDx=0;exitDy=0;entryX=0.5;entryY=1;entryDx=0;entryDy=0;" parent="1" source="6EH58I3_XAjh3CZvvOXK-5" target="6EH58I3_XAjh3CZvvOXK-59" edge="1">
                    <mxGeometry relative="1" as="geometry"/>
                </mxCell>
                <mxCell id="4" style="edgeStyle=none;html=1;exitX=1;exitY=0.25;exitDx=0;exitDy=0;entryX=0;entryY=0.5;entryDx=0;entryDy=0;" parent="1" source="6EH58I3_XAjh3CZvvOXK-5" target="6EH58I3_XAjh3CZvvOXK-60" edge="1">
                    <mxGeometry relative="1" as="geometry"/>
                </mxCell>
                <mxCell id="5" style="edgeStyle=none;html=1;exitX=0;exitY=0.75;exitDx=0;exitDy=0;entryX=1;entryY=0.5;entryDx=0;entryDy=0;" parent="1" source="6EH58I3_XAjh3CZvvOXK-5" target="6EH58I3_XAjh3CZvvOXK-63" edge="1">
                    <mxGeometry relative="1" as="geometry"/>
                </mxCell>
                <mxCell id="6" style="edgeStyle=none;html=1;exitX=0;exitY=0.25;exitDx=0;exitDy=0;entryX=1;entryY=0.5;entryDx=0;entryDy=0;" parent="1" source="6EH58I3_XAjh3CZvvOXK-5" target="6EH58I3_XAjh3CZvvOXK-56" edge="1">
                    <mxGeometry relative="1" as="geometry"/>
                </mxCell>
                <mxCell id="8" style="edgeStyle=none;html=1;exitX=1;exitY=0.75;exitDx=0;exitDy=0;entryX=0;entryY=0.5;entryDx=0;entryDy=0;" parent="1" source="6EH58I3_XAjh3CZvvOXK-5" target="7" edge="1">
                    <mxGeometry relative="1" as="geometry"/>
                </mxCell>
                <mxCell id="6EH58I3_XAjh3CZvvOXK-5" value="Bill" style="rounded=0;whiteSpace=wrap;html=1;" parent="1" vertex="1">
                    <mxGeometry x="-485.25" y="258" width="120" height="60" as="geometry"/>
                </mxCell>
                <mxCell id="9" style="edgeStyle=none;html=1;entryX=1;entryY=0.5;entryDx=0;entryDy=0;" parent="1" target="10" edge="1">
                    <mxGeometry relative="1" as="geometry">
                        <mxPoint x="-525.25" y="438" as="targetPoint"/>
                        <mxPoint x="-485" y="498" as="sourcePoint"/>
                    </mxGeometry>
                </mxCell>
                <mxCell id="11" style="edgeStyle=none;html=1;exitX=1;exitY=0.5;exitDx=0;exitDy=0;entryX=0;entryY=0.5;entryDx=0;entryDy=0;" parent="1" source="6EH58I3_XAjh3CZvvOXK-6" target="12" edge="1">
                    <mxGeometry relative="1" as="geometry">
                        <mxPoint x="-325.25" y="438" as="targetPoint"/>
                    </mxGeometry>
                </mxCell>
                <mxCell id="14" style="edgeStyle=none;html=1;exitX=0.5;exitY=0;exitDx=0;exitDy=0;entryX=0.5;entryY=1;entryDx=0;entryDy=0;" parent="1" source="6EH58I3_XAjh3CZvvOXK-6" target="13" edge="1">
                    <mxGeometry relative="1" as="geometry"/>
                </mxCell>
                <mxCell id="174" style="edgeStyle=none;html=1;exitX=0.5;exitY=1;exitDx=0;exitDy=0;entryX=0.5;entryY=0;entryDx=0;entryDy=0;" edge="1" parent="1" source="6EH58I3_XAjh3CZvvOXK-6" target="173">
                    <mxGeometry relative="1" as="geometry"/>
                </mxCell>
                <mxCell id="6EH58I3_XAjh3CZvvOXK-6" value="Receipt" style="rounded=0;whiteSpace=wrap;html=1;" parent="1" vertex="1">
                    <mxGeometry x="-485.25" y="468" width="120" height="60" as="geometry"/>
                </mxCell>
                <mxCell id="78" style="edgeStyle=none;html=1;exitX=0.5;exitY=0;exitDx=0;exitDy=0;entryX=0.5;entryY=1;entryDx=0;entryDy=0;" parent="1" source="6EH58I3_XAjh3CZvvOXK-7" target="71" edge="1">
                    <mxGeometry relative="1" as="geometry"/>
                </mxCell>
                <mxCell id="79" style="edgeStyle=none;html=1;exitX=1;exitY=0;exitDx=0;exitDy=0;entryX=0;entryY=1;entryDx=0;entryDy=0;" parent="1" source="6EH58I3_XAjh3CZvvOXK-7" target="76" edge="1">
                    <mxGeometry relative="1" as="geometry"/>
                </mxCell>
                <mxCell id="80" style="edgeStyle=none;html=1;exitX=1;exitY=0.5;exitDx=0;exitDy=0;entryX=0;entryY=0.5;entryDx=0;entryDy=0;" parent="1" source="6EH58I3_XAjh3CZvvOXK-7" target="77" edge="1">
                    <mxGeometry relative="1" as="geometry"/>
                </mxCell>
                <mxCell id="82" style="edgeStyle=none;html=1;exitX=0;exitY=0;exitDx=0;exitDy=0;entryX=1;entryY=1;entryDx=0;entryDy=0;" parent="1" source="6EH58I3_XAjh3CZvvOXK-7" target="74" edge="1">
                    <mxGeometry relative="1" as="geometry"/>
                </mxCell>
                <mxCell id="118" style="edgeStyle=none;html=1;exitX=0.5;exitY=1;exitDx=0;exitDy=0;entryX=0.5;entryY=0;entryDx=0;entryDy=0;" parent="1" source="6EH58I3_XAjh3CZvvOXK-7" target="117" edge="1">
                    <mxGeometry relative="1" as="geometry"/>
                </mxCell>
                <mxCell id="178" style="edgeStyle=none;html=1;exitX=0;exitY=0.5;exitDx=0;exitDy=0;entryX=1;entryY=0.5;entryDx=0;entryDy=0;" edge="1" parent="1" source="6EH58I3_XAjh3CZvvOXK-7" target="177">
                    <mxGeometry relative="1" as="geometry"/>
                </mxCell>
                <mxCell id="6EH58I3_XAjh3CZvvOXK-7" value="Lease" style="rounded=0;whiteSpace=wrap;html=1;" parent="1" vertex="1">
                    <mxGeometry x="360" y="198" width="120" height="60" as="geometry"/>
                </mxCell>
                <mxCell id="87" style="edgeStyle=none;html=1;exitX=0.75;exitY=0;exitDx=0;exitDy=0;entryX=0.5;entryY=1;entryDx=0;entryDy=0;" parent="1" source="6EH58I3_XAjh3CZvvOXK-8" target="85" edge="1">
                    <mxGeometry relative="1" as="geometry"/>
                </mxCell>
                <mxCell id="88" style="edgeStyle=none;html=1;exitX=0.25;exitY=0;exitDx=0;exitDy=0;entryX=0.5;entryY=1;entryDx=0;entryDy=0;" parent="1" source="6EH58I3_XAjh3CZvvOXK-8" target="84" edge="1">
                    <mxGeometry relative="1" as="geometry"/>
                </mxCell>
                <mxCell id="89" style="edgeStyle=none;html=1;exitX=0;exitY=0.5;exitDx=0;exitDy=0;entryX=1;entryY=1;entryDx=0;entryDy=0;" parent="1" source="6EH58I3_XAjh3CZvvOXK-8" target="83" edge="1">
                    <mxGeometry relative="1" as="geometry"/>
                </mxCell>
                <mxCell id="90" style="edgeStyle=none;html=1;exitX=1;exitY=0.5;exitDx=0;exitDy=0;entryX=0;entryY=1;entryDx=0;entryDy=0;" parent="1" source="6EH58I3_XAjh3CZvvOXK-8" target="86" edge="1">
                    <mxGeometry relative="1" as="geometry"/>
                </mxCell>
                <mxCell id="6EH58I3_XAjh3CZvvOXK-8" value="Notifications" style="rounded=0;whiteSpace=wrap;html=1;" parent="1" vertex="1">
                    <mxGeometry x="1408" y="767.5" width="120" height="60" as="geometry"/>
                </mxCell>
                <mxCell id="58" style="edgeStyle=none;html=1;exitX=0.5;exitY=0;exitDx=0;exitDy=0;entryX=0.5;entryY=1;entryDx=0;entryDy=0;" parent="1" source="6EH58I3_XAjh3CZvvOXK-10" target="54" edge="1">
                    <mxGeometry relative="1" as="geometry"/>
                </mxCell>
                <mxCell id="59" style="edgeStyle=none;html=1;exitX=0;exitY=0.5;exitDx=0;exitDy=0;entryX=1;entryY=0.5;entryDx=0;entryDy=0;" parent="1" source="6EH58I3_XAjh3CZvvOXK-10" target="53" edge="1">
                    <mxGeometry relative="1" as="geometry"/>
                </mxCell>
                <mxCell id="60" style="edgeStyle=none;html=1;exitX=1;exitY=0.5;exitDx=0;exitDy=0;entryX=0;entryY=0.5;entryDx=0;entryDy=0;" parent="1" source="6EH58I3_XAjh3CZvvOXK-10" target="57" edge="1">
                    <mxGeometry relative="1" as="geometry"/>
                </mxCell>
                <mxCell id="64" style="edgeStyle=none;html=1;exitX=0.5;exitY=1;exitDx=0;exitDy=0;entryX=0.5;entryY=0;entryDx=0;entryDy=0;" parent="1" source="6EH58I3_XAjh3CZvvOXK-10" target="63" edge="1">
                    <mxGeometry relative="1" as="geometry"/>
                </mxCell>
                <mxCell id="172" style="edgeStyle=none;html=1;exitX=1;exitY=0;exitDx=0;exitDy=0;entryX=0;entryY=0.5;entryDx=0;entryDy=0;" edge="1" parent="1" source="6EH58I3_XAjh3CZvvOXK-10" target="171">
                    <mxGeometry relative="1" as="geometry"/>
                </mxCell>
                <mxCell id="6EH58I3_XAjh3CZvvOXK-10" value="Discount" style="rounded=0;whiteSpace=wrap;html=1;" parent="1" vertex="1">
                    <mxGeometry x="-487.12" y="710" width="120" height="60" as="geometry"/>
                </mxCell>
                <mxCell id="129" style="edgeStyle=none;html=1;exitX=1;exitY=0;exitDx=0;exitDy=0;entryX=0;entryY=1;entryDx=0;entryDy=0;" parent="1" source="6EH58I3_XAjh3CZvvOXK-12" target="121" edge="1">
                    <mxGeometry relative="1" as="geometry"/>
                </mxCell>
                <mxCell id="130" style="edgeStyle=none;html=1;exitX=0.5;exitY=0;exitDx=0;exitDy=0;entryX=0.5;entryY=1;entryDx=0;entryDy=0;" parent="1" source="6EH58I3_XAjh3CZvvOXK-12" target="126" edge="1">
                    <mxGeometry relative="1" as="geometry"/>
                </mxCell>
                <mxCell id="131" style="edgeStyle=none;html=1;exitX=0;exitY=0;exitDx=0;exitDy=0;entryX=1;entryY=1;entryDx=0;entryDy=0;" parent="1" source="6EH58I3_XAjh3CZvvOXK-12" target="119" edge="1">
                    <mxGeometry relative="1" as="geometry"/>
                </mxCell>
                <mxCell id="132" style="edgeStyle=none;html=1;exitX=0;exitY=0.5;exitDx=0;exitDy=0;entryX=1;entryY=0.5;entryDx=0;entryDy=0;" parent="1" source="6EH58I3_XAjh3CZvvOXK-12" target="122" edge="1">
                    <mxGeometry relative="1" as="geometry"/>
                </mxCell>
                <mxCell id="133" style="edgeStyle=none;html=1;exitX=1;exitY=0.5;exitDx=0;exitDy=0;entryX=0;entryY=0.5;entryDx=0;entryDy=0;" parent="1" source="6EH58I3_XAjh3CZvvOXK-12" target="123" edge="1">
                    <mxGeometry relative="1" as="geometry"/>
                </mxCell>
                <mxCell id="136" style="edgeStyle=none;html=1;exitX=0.75;exitY=1;exitDx=0;exitDy=0;entryX=0.5;entryY=0;entryDx=0;entryDy=0;" parent="1" source="6EH58I3_XAjh3CZvvOXK-12" target="124" edge="1">
                    <mxGeometry relative="1" as="geometry">
                        <mxPoint x="-1271.5" y="489" as="targetPoint"/>
                    </mxGeometry>
                </mxCell>
                <mxCell id="137" style="edgeStyle=none;html=1;exitX=0.25;exitY=1;exitDx=0;exitDy=0;entryX=0.5;entryY=0;entryDx=0;entryDy=0;" parent="1" source="6EH58I3_XAjh3CZvvOXK-12" target="125" edge="1">
                    <mxGeometry relative="1" as="geometry"/>
                </mxCell>
                <mxCell id="6EH58I3_XAjh3CZvvOXK-12" value="Utility Consumption" style="rounded=0;whiteSpace=wrap;html=1;" parent="1" vertex="1">
                    <mxGeometry x="-1336.5" y="374" width="120" height="60" as="geometry"/>
                </mxCell>
                <mxCell id="146" style="edgeStyle=none;html=1;exitX=0.75;exitY=0;exitDx=0;exitDy=0;entryX=0.5;entryY=1;entryDx=0;entryDy=0;" parent="1" source="6EH58I3_XAjh3CZvvOXK-20" target="143" edge="1">
                    <mxGeometry relative="1" as="geometry"/>
                </mxCell>
                <mxCell id="147" style="edgeStyle=none;html=1;exitX=0.25;exitY=0;exitDx=0;exitDy=0;entryX=0.5;entryY=1;entryDx=0;entryDy=0;" parent="1" source="6EH58I3_XAjh3CZvvOXK-20" target="134" edge="1">
                    <mxGeometry relative="1" as="geometry"/>
                </mxCell>
                <mxCell id="148" style="edgeStyle=none;html=1;exitX=0;exitY=0.25;exitDx=0;exitDy=0;entryX=1;entryY=0.5;entryDx=0;entryDy=0;" parent="1" source="6EH58I3_XAjh3CZvvOXK-20" target="135" edge="1">
                    <mxGeometry relative="1" as="geometry"/>
                </mxCell>
                <mxCell id="149" style="edgeStyle=none;html=1;exitX=0;exitY=0.75;exitDx=0;exitDy=0;entryX=1;entryY=0.5;entryDx=0;entryDy=0;" parent="1" source="6EH58I3_XAjh3CZvvOXK-20" target="139" edge="1">
                    <mxGeometry relative="1" as="geometry"/>
                </mxCell>
                <mxCell id="150" style="edgeStyle=none;html=1;exitX=1;exitY=0.25;exitDx=0;exitDy=0;entryX=0;entryY=0.5;entryDx=0;entryDy=0;" parent="1" source="6EH58I3_XAjh3CZvvOXK-20" target="144" edge="1">
                    <mxGeometry relative="1" as="geometry"/>
                </mxCell>
                <mxCell id="151" style="edgeStyle=none;html=1;exitX=1;exitY=0.75;exitDx=0;exitDy=0;entryX=0;entryY=0.5;entryDx=0;entryDy=0;" parent="1" source="6EH58I3_XAjh3CZvvOXK-20" target="142" edge="1">
                    <mxGeometry relative="1" as="geometry"/>
                </mxCell>
                <mxCell id="152" style="edgeStyle=none;html=1;exitX=0.5;exitY=1;exitDx=0;exitDy=0;entryX=0.5;entryY=0;entryDx=0;entryDy=0;" parent="1" source="6EH58I3_XAjh3CZvvOXK-20" target="141" edge="1">
                    <mxGeometry relative="1" as="geometry"/>
                </mxCell>
                <mxCell id="6EH58I3_XAjh3CZvvOXK-20" value="Maintenance Request" style="rounded=0;whiteSpace=wrap;html=1;" parent="1" vertex="1">
                    <mxGeometry x="-1334" y="677.5" width="120" height="60" as="geometry"/>
                </mxCell>
                <mxCell id="17" style="edgeStyle=none;html=1;exitX=0.25;exitY=0;exitDx=0;exitDy=0;entryX=0.5;entryY=1;entryDx=0;entryDy=0;" parent="1" source="6EH58I3_XAjh3CZvvOXK-22" target="15" edge="1">
                    <mxGeometry relative="1" as="geometry"/>
                </mxCell>
                <mxCell id="18" style="edgeStyle=none;html=1;exitX=0.75;exitY=0;exitDx=0;exitDy=0;entryX=0.5;entryY=1;entryDx=0;entryDy=0;" parent="1" source="6EH58I3_XAjh3CZvvOXK-22" target="16" edge="1">
                    <mxGeometry relative="1" as="geometry"/>
                </mxCell>
                <mxCell id="183" style="edgeStyle=none;html=1;exitX=0.5;exitY=1;exitDx=0;exitDy=0;entryX=0.5;entryY=0;entryDx=0;entryDy=0;" edge="1" parent="1" source="6EH58I3_XAjh3CZvvOXK-22" target="182">
                    <mxGeometry relative="1" as="geometry"/>
                </mxCell>
                <mxCell id="6EH58I3_XAjh3CZvvOXK-22" value="Mall" style="whiteSpace=wrap;html=1;" parent="1" vertex="1">
                    <mxGeometry x="993" y="518" width="120" height="60" as="geometry"/>
                </mxCell>
                <mxCell id="6EH58I3_XAjh3CZvvOXK-23" value="LocationNum" style="ellipse;whiteSpace=wrap;html=1;rounded=0;" parent="1" vertex="1">
                    <mxGeometry x="1223" y="237.5" width="80" height="40" as="geometry"/>
                </mxCell>
                <mxCell id="6EH58I3_XAjh3CZvvOXK-27" value="Name" style="ellipse;whiteSpace=wrap;html=1;rounded=0;" parent="1" vertex="1">
                    <mxGeometry x="1133" y="237.5" width="80" height="40" as="geometry"/>
                </mxCell>
                <mxCell id="6EH58I3_XAjh3CZvvOXK-29" value="Space" style="ellipse;whiteSpace=wrap;html=1;rounded=0;" parent="1" vertex="1">
                    <mxGeometry x="1313" y="237.5" width="80" height="40" as="geometry"/>
                </mxCell>
                <mxCell id="6EH58I3_XAjh3CZvvOXK-37" style="edgeStyle=none;rounded=0;orthogonalLoop=1;jettySize=auto;html=1;exitX=0;exitY=0;exitDx=0;exitDy=0;entryX=0.447;entryY=1.02;entryDx=0;entryDy=0;entryPerimeter=0;" parent="1" source="6EH58I3_XAjh3CZvvOXK-31" target="6EH58I3_XAjh3CZvvOXK-38" edge="1">
                    <mxGeometry relative="1" as="geometry">
                        <mxPoint x="1373" y="187.5" as="targetPoint"/>
                    </mxGeometry>
                </mxCell>
                <mxCell id="6EH58I3_XAjh3CZvvOXK-39" style="edgeStyle=none;rounded=0;orthogonalLoop=1;jettySize=auto;html=1;exitX=0.5;exitY=0;exitDx=0;exitDy=0;entryX=0.5;entryY=1;entryDx=0;entryDy=0;" parent="1" source="6EH58I3_XAjh3CZvvOXK-31" target="6EH58I3_XAjh3CZvvOXK-40" edge="1">
                    <mxGeometry relative="1" as="geometry">
                        <mxPoint x="1443.037037037037" y="177.5" as="targetPoint"/>
                    </mxGeometry>
                </mxCell>
                <mxCell id="6EH58I3_XAjh3CZvvOXK-41" style="edgeStyle=none;rounded=0;orthogonalLoop=1;jettySize=auto;html=1;exitX=1;exitY=0;exitDx=0;exitDy=0;entryX=0.5;entryY=1;entryDx=0;entryDy=0;" parent="1" source="6EH58I3_XAjh3CZvvOXK-31" target="6EH58I3_XAjh3CZvvOXK-43" edge="1">
                    <mxGeometry relative="1" as="geometry">
                        <mxPoint x="1523" y="177.5" as="targetPoint"/>
                    </mxGeometry>
                </mxCell>
                <mxCell id="6EH58I3_XAjh3CZvvOXK-45" style="edgeStyle=none;rounded=0;orthogonalLoop=1;jettySize=auto;html=1;exitX=1;exitY=0.5;exitDx=0;exitDy=0;entryX=0.5;entryY=1;entryDx=0;entryDy=0;" parent="1" source="6EH58I3_XAjh3CZvvOXK-31" target="6EH58I3_XAjh3CZvvOXK-44" edge="1">
                    <mxGeometry relative="1" as="geometry"/>
                </mxCell>
                <mxCell id="6EH58I3_XAjh3CZvvOXK-31" value="RentalRate" style="ellipse;whiteSpace=wrap;html=1;rounded=0;" parent="1" vertex="1">
                    <mxGeometry x="1403" y="237.5" width="80" height="40" as="geometry"/>
                </mxCell>
                <mxCell id="6EH58I3_XAjh3CZvvOXK-38" value="Monthly" style="ellipse;whiteSpace=wrap;html=1;rounded=0;" parent="1" vertex="1">
                    <mxGeometry x="1283" y="147.5" width="80" height="40" as="geometry"/>
                </mxCell>
                <mxCell id="6EH58I3_XAjh3CZvvOXK-40" value="Quarterly" style="ellipse;whiteSpace=wrap;html=1;rounded=0;" parent="1" vertex="1">
                    <mxGeometry x="1373" y="127.5" width="80" height="40" as="geometry"/>
                </mxCell>
                <mxCell id="6EH58I3_XAjh3CZvvOXK-43" value="bi-annually" style="ellipse;whiteSpace=wrap;html=1;rounded=0;" parent="1" vertex="1">
                    <mxGeometry x="1473" y="127.5" width="80" height="40" as="geometry"/>
                </mxCell>
                <mxCell id="6EH58I3_XAjh3CZvvOXK-44" value="Annually" style="ellipse;whiteSpace=wrap;html=1;rounded=0;" parent="1" vertex="1">
                    <mxGeometry x="1563" y="147.5" width="80" height="40" as="geometry"/>
                </mxCell>
                <mxCell id="6EH58I3_XAjh3CZvvOXK-56" value="Date Due" style="ellipse;whiteSpace=wrap;html=1;rounded=0;" parent="1" vertex="1">
                    <mxGeometry x="-605.25" y="228" width="80" height="40" as="geometry"/>
                </mxCell>
                <mxCell id="6EH58I3_XAjh3CZvvOXK-58" value="LeaseID" style="ellipse;whiteSpace=wrap;html=1;rounded=0;" parent="1" vertex="1">
                    <mxGeometry x="-515.25" y="198" width="80" height="40" as="geometry"/>
                </mxCell>
                <mxCell id="6EH58I3_XAjh3CZvvOXK-59" value="UtilityID" style="ellipse;whiteSpace=wrap;html=1;rounded=0;" parent="1" vertex="1">
                    <mxGeometry x="-415.25" y="198" width="80" height="40" as="geometry"/>
                </mxCell>
                <mxCell id="6EH58I3_XAjh3CZvvOXK-60" value="Total Due" style="ellipse;whiteSpace=wrap;html=1;rounded=0;" parent="1" vertex="1">
                    <mxGeometry x="-325.25" y="228" width="80" height="40" as="geometry"/>
                </mxCell>
                <mxCell id="6EH58I3_XAjh3CZvvOXK-62" value="Class" style="ellipse;whiteSpace=wrap;html=1;rounded=0;" parent="1" vertex="1">
                    <mxGeometry x="960" y="334" width="80" height="40" as="geometry"/>
                </mxCell>
                <mxCell id="6EH58I3_XAjh3CZvvOXK-63" value="Payment Status" style="ellipse;whiteSpace=wrap;html=1;rounded=0;" parent="1" vertex="1">
                    <mxGeometry x="-605.25" y="288" width="80" height="40" as="geometry"/>
                </mxCell>
                <mxCell id="7" value="BillNum" style="ellipse;whiteSpace=wrap;html=1;rounded=0;" parent="1" vertex="1">
                    <mxGeometry x="-325.25" y="288" width="80" height="40" as="geometry"/>
                </mxCell>
                <mxCell id="10" value="ReceiptNum" style="ellipse;whiteSpace=wrap;html=1;rounded=0;" parent="1" vertex="1">
                    <mxGeometry x="-605.25" y="478" width="80" height="40" as="geometry"/>
                </mxCell>
                <mxCell id="12" value="BillNum" style="ellipse;whiteSpace=wrap;html=1;rounded=0;" parent="1" vertex="1">
                    <mxGeometry x="-325.25" y="478" width="80" height="40" as="geometry"/>
                </mxCell>
                <mxCell id="13" value="Amount Paid" style="ellipse;whiteSpace=wrap;html=1;rounded=0;" parent="1" vertex="1">
                    <mxGeometry x="-465.25" y="398" width="80" height="40" as="geometry"/>
                </mxCell>
                <mxCell id="15" value="MallNum" style="ellipse;whiteSpace=wrap;html=1;rounded=0;" parent="1" vertex="1">
                    <mxGeometry x="963" y="438" width="80" height="40" as="geometry"/>
                </mxCell>
                <mxCell id="16" value="Address" style="ellipse;whiteSpace=wrap;html=1;rounded=0;" parent="1" vertex="1">
                    <mxGeometry x="1053" y="438" width="80" height="40" as="geometry"/>
                </mxCell>
                <mxCell id="95" style="edgeStyle=none;html=1;exitX=0.5;exitY=0;exitDx=0;exitDy=0;entryX=0.5;entryY=1;entryDx=0;entryDy=0;" parent="1" source="19" target="92" edge="1">
                    <mxGeometry relative="1" as="geometry"/>
                </mxCell>
                <mxCell id="96" value="" style="edgeStyle=none;html=1;exitX=0;exitY=0;exitDx=0;exitDy=0;" parent="1" source="19" target="91" edge="1">
                    <mxGeometry relative="1" as="geometry"/>
                </mxCell>
                <mxCell id="97" style="edgeStyle=none;html=1;entryX=0;entryY=1;entryDx=0;entryDy=0;exitX=1;exitY=0;exitDx=0;exitDy=0;" parent="1" source="19" target="94" edge="1">
                    <mxGeometry relative="1" as="geometry">
                        <mxPoint x="473" y="670" as="sourcePoint"/>
                    </mxGeometry>
                </mxCell>
                <mxCell id="19" value="Available Appointment Times" style="whiteSpace=wrap;html=1;" parent="1" vertex="1">
                    <mxGeometry x="363" y="690" width="120" height="60" as="geometry"/>
                </mxCell>
                <mxCell id="51" style="edgeStyle=none;html=1;exitX=1;exitY=0;exitDx=0;exitDy=0;entryX=0.5;entryY=1;entryDx=0;entryDy=0;" parent="1" source="20" target="50" edge="1">
                    <mxGeometry relative="1" as="geometry"/>
                </mxCell>
                <mxCell id="52" style="edgeStyle=none;html=1;exitX=0;exitY=0;exitDx=0;exitDy=0;entryX=0.5;entryY=1;entryDx=0;entryDy=0;" parent="1" source="20" target="49" edge="1">
                    <mxGeometry relative="1" as="geometry"/>
                </mxCell>
                <mxCell id="20" value="Role" style="whiteSpace=wrap;html=1;" parent="1" vertex="1">
                    <mxGeometry x="1243" y="972.5" width="120" height="60" as="geometry"/>
                </mxCell>
                <mxCell id="42" style="edgeStyle=none;html=1;exitX=0.5;exitY=0;exitDx=0;exitDy=0;entryX=0.5;entryY=1;entryDx=0;entryDy=0;" parent="1" source="29" target="35" edge="1">
                    <mxGeometry relative="1" as="geometry"/>
                </mxCell>
                <mxCell id="43" style="edgeStyle=none;html=1;exitX=1;exitY=0;exitDx=0;exitDy=0;entryX=0;entryY=1;entryDx=0;entryDy=0;" parent="1" source="29" target="36" edge="1">
                    <mxGeometry relative="1" as="geometry"/>
                </mxCell>
                <mxCell id="46" style="edgeStyle=none;html=1;exitX=0;exitY=0.5;exitDx=0;exitDy=0;entryX=1;entryY=0.5;entryDx=0;entryDy=0;" parent="1" source="29" target="33" edge="1">
                    <mxGeometry relative="1" as="geometry"/>
                </mxCell>
                <mxCell id="47" style="edgeStyle=none;html=1;exitX=0;exitY=0;exitDx=0;exitDy=0;entryX=1;entryY=1;entryDx=0;entryDy=0;" parent="1" source="29" target="34" edge="1">
                    <mxGeometry relative="1" as="geometry"/>
                </mxCell>
                <mxCell id="69" style="edgeStyle=none;html=1;exitX=1;exitY=0.5;exitDx=0;exitDy=0;entryX=0;entryY=0.5;entryDx=0;entryDy=0;" parent="1" source="29" target="70" edge="1">
                    <mxGeometry relative="1" as="geometry">
                        <mxPoint x="1188" y="797.25" as="targetPoint"/>
                    </mxGeometry>
                </mxCell>
                <mxCell id="29" value="User" style="whiteSpace=wrap;html=1;" parent="1" vertex="1">
                    <mxGeometry x="1028" y="767.5" width="120" height="60" as="geometry"/>
                </mxCell>
                <mxCell id="33" value="RoleID" style="ellipse;whiteSpace=wrap;html=1;rounded=0;" parent="1" vertex="1">
                    <mxGeometry x="908" y="777.5" width="80" height="40" as="geometry"/>
                </mxCell>
                <mxCell id="34" value="EmailAddress" style="ellipse;whiteSpace=wrap;html=1;rounded=0;" parent="1" vertex="1">
                    <mxGeometry x="948" y="717.5" width="80" height="40" as="geometry"/>
                </mxCell>
                <mxCell id="35" value="PhoneNumber" style="ellipse;whiteSpace=wrap;html=1;rounded=0;" parent="1" vertex="1">
                    <mxGeometry x="1048" y="697.5" width="80" height="40" as="geometry"/>
                </mxCell>
                <mxCell id="193" style="edgeStyle=none;html=1;exitX=0;exitY=0;exitDx=0;exitDy=0;entryX=0.5;entryY=1;entryDx=0;entryDy=0;" edge="1" parent="1" source="36" target="194">
                    <mxGeometry relative="1" as="geometry">
                        <mxPoint x="1187.4285714285716" y="680" as="targetPoint"/>
                    </mxGeometry>
                </mxCell>
                <mxCell id="196" style="edgeStyle=none;html=1;exitX=1;exitY=0;exitDx=0;exitDy=0;entryX=0.5;entryY=1;entryDx=0;entryDy=0;" edge="1" parent="1" source="36" target="197">
                    <mxGeometry relative="1" as="geometry">
                        <mxPoint x="1250" y="680" as="targetPoint"/>
                    </mxGeometry>
                </mxCell>
                <mxCell id="36" value="Name" style="ellipse;whiteSpace=wrap;html=1;rounded=0;" parent="1" vertex="1">
                    <mxGeometry x="1148" y="717.5" width="80" height="40" as="geometry"/>
                </mxCell>
                <mxCell id="37" value="Password" style="ellipse;whiteSpace=wrap;html=1;rounded=0;" parent="1" vertex="1">
                    <mxGeometry x="1088" y="902.5" width="80" height="40" as="geometry"/>
                </mxCell>
                <mxCell id="38" value="UserID" style="ellipse;whiteSpace=wrap;html=1;rounded=0;" parent="1" vertex="1">
                    <mxGeometry x="998" y="902.5" width="80" height="40" as="geometry"/>
                </mxCell>
                <mxCell id="49" value="RoleID" style="ellipse;whiteSpace=wrap;html=1;rounded=0;" parent="1" vertex="1">
                    <mxGeometry x="1193" y="912.5" width="80" height="40" as="geometry"/>
                </mxCell>
                <mxCell id="50" value="Description" style="ellipse;whiteSpace=wrap;html=1;rounded=0;" parent="1" vertex="1">
                    <mxGeometry x="1333" y="912.5" width="80" height="40" as="geometry"/>
                </mxCell>
                <mxCell id="53" value="LeasePercentage" style="ellipse;whiteSpace=wrap;html=1;rounded=0;" parent="1" vertex="1">
                    <mxGeometry x="-647.12" y="720" width="135" height="40" as="geometry"/>
                </mxCell>
                <mxCell id="54" value="UtilityPercentage" style="ellipse;whiteSpace=wrap;html=1;rounded=0;" parent="1" vertex="1">
                    <mxGeometry x="-494.62" y="650" width="135" height="40" as="geometry"/>
                </mxCell>
                <mxCell id="57" value="MaintenancePercentage" style="ellipse;whiteSpace=wrap;html=1;rounded=0;" parent="1" vertex="1">
                    <mxGeometry x="-344.62" y="720" width="135" height="40" as="geometry"/>
                </mxCell>
                <mxCell id="63" value="DiscountID" style="ellipse;whiteSpace=wrap;html=1;rounded=0;" parent="1" vertex="1">
                    <mxGeometry x="-494.62" y="800" width="135" height="40" as="geometry"/>
                </mxCell>
                <mxCell id="67" style="edgeStyle=none;html=1;exitX=0.25;exitY=0;exitDx=0;exitDy=0;entryX=0.5;entryY=1;entryDx=0;entryDy=0;" parent="1" source="66" target="38" edge="1">
                    <mxGeometry relative="1" as="geometry"/>
                </mxCell>
                <mxCell id="68" style="edgeStyle=none;html=1;exitX=0.75;exitY=0;exitDx=0;exitDy=0;entryX=0.5;entryY=1;entryDx=0;entryDy=0;" parent="1" source="66" target="37" edge="1">
                    <mxGeometry relative="1" as="geometry"/>
                </mxCell>
                <mxCell id="66" value="Credentials" style="whiteSpace=wrap;html=1;" parent="1" vertex="1">
                    <mxGeometry x="1028" y="972.5" width="120" height="60" as="geometry"/>
                </mxCell>
                <mxCell id="70" value="UserID" style="ellipse;whiteSpace=wrap;html=1;rounded=0;" parent="1" vertex="1">
                    <mxGeometry x="1188" y="777.5" width="80" height="40" as="geometry"/>
                </mxCell>
                <mxCell id="71" value="LeaserID" style="ellipse;whiteSpace=wrap;html=1;rounded=0;" parent="1" vertex="1">
                    <mxGeometry x="380" y="118" width="80" height="40" as="geometry"/>
                </mxCell>
                <mxCell id="74" value="LocationNum" style="ellipse;whiteSpace=wrap;html=1;rounded=0;" parent="1" vertex="1">
                    <mxGeometry x="270" y="138" width="80" height="40" as="geometry"/>
                </mxCell>
                <mxCell id="76" value="Start Date" style="ellipse;whiteSpace=wrap;html=1;rounded=0;" parent="1" vertex="1">
                    <mxGeometry x="490" y="138" width="80" height="40" as="geometry"/>
                </mxCell>
                <mxCell id="77" value="End Date" style="ellipse;whiteSpace=wrap;html=1;rounded=0;" parent="1" vertex="1">
                    <mxGeometry x="510" y="208" width="80" height="40" as="geometry"/>
                </mxCell>
                <mxCell id="83" value="SenderID" style="ellipse;whiteSpace=wrap;html=1;rounded=0;" parent="1" vertex="1">
                    <mxGeometry x="1298" y="737.5" width="80" height="40" as="geometry"/>
                </mxCell>
                <mxCell id="84" value="ReceiverID" style="ellipse;whiteSpace=wrap;html=1;rounded=0;" parent="1" vertex="1">
                    <mxGeometry x="1378" y="687.5" width="80" height="40" as="geometry"/>
                </mxCell>
                <mxCell id="85" value="Date Sent" style="ellipse;whiteSpace=wrap;html=1;rounded=0;" parent="1" vertex="1">
                    <mxGeometry x="1478" y="687.5" width="80" height="40" as="geometry"/>
                </mxCell>
                <mxCell id="86" value="Message" style="ellipse;whiteSpace=wrap;html=1;rounded=0;" parent="1" vertex="1">
                    <mxGeometry x="1558" y="737.5" width="80" height="40" as="geometry"/>
                </mxCell>
                <mxCell id="91" value="AgentID" style="ellipse;whiteSpace=wrap;html=1;rounded=0;" parent="1" vertex="1">
                    <mxGeometry x="273" y="650" width="80" height="40" as="geometry"/>
                </mxCell>
                <mxCell id="92" value="Start Date" style="ellipse;whiteSpace=wrap;html=1;rounded=0;" parent="1" vertex="1">
                    <mxGeometry x="383" y="620" width="80" height="40" as="geometry"/>
                </mxCell>
                <mxCell id="94" value="EndDate" style="ellipse;whiteSpace=wrap;html=1;rounded=0;" parent="1" vertex="1">
                    <mxGeometry x="493" y="650" width="80" height="40" as="geometry"/>
                </mxCell>
                <mxCell id="99" value="AgentID" style="ellipse;whiteSpace=wrap;html=1;rounded=0;" parent="1" vertex="1">
                    <mxGeometry x="233" y="870" width="80" height="40" as="geometry"/>
                </mxCell>
                <mxCell id="101" value="potentialTenantID" style="ellipse;whiteSpace=wrap;html=1;rounded=0;" parent="1" vertex="1">
                    <mxGeometry x="273" y="800" width="140" height="40" as="geometry"/>
                </mxCell>
                <mxCell id="104" value="Start Date" style="ellipse;whiteSpace=wrap;html=1;rounded=0;" parent="1" vertex="1">
                    <mxGeometry x="460" y="800" width="80" height="40" as="geometry"/>
                </mxCell>
                <mxCell id="105" value="EndDate" style="ellipse;whiteSpace=wrap;html=1;rounded=0;" parent="1" vertex="1">
                    <mxGeometry x="533" y="870" width="80" height="40" as="geometry"/>
                </mxCell>
                <mxCell id="108" value="LocationNum" style="ellipse;whiteSpace=wrap;html=1;rounded=0;" parent="1" vertex="1">
                    <mxGeometry x="383" y="952.5" width="80" height="40" as="geometry"/>
                </mxCell>
                <mxCell id="117" value="PaymentOption" style="ellipse;whiteSpace=wrap;html=1;rounded=0;" parent="1" vertex="1">
                    <mxGeometry x="380" y="278" width="80" height="40" as="geometry"/>
                </mxCell>
                <mxCell id="119" value="ElectricityConsumption" style="ellipse;whiteSpace=wrap;html=1;rounded=0;" parent="1" vertex="1">
                    <mxGeometry x="-1531.5" y="304" width="170" height="40" as="geometry"/>
                </mxCell>
                <mxCell id="121" value="ElectricityCharge" style="ellipse;whiteSpace=wrap;html=1;rounded=0;" parent="1" vertex="1">
                    <mxGeometry x="-1191.5" y="304" width="170" height="40" as="geometry"/>
                </mxCell>
                <mxCell id="122" value="WaterConsumption" style="ellipse;whiteSpace=wrap;html=1;rounded=0;" parent="1" vertex="1">
                    <mxGeometry x="-1541.5" y="384" width="170" height="40" as="geometry"/>
                </mxCell>
                <mxCell id="123" value="WaterCharge" style="ellipse;whiteSpace=wrap;html=1;rounded=0;" parent="1" vertex="1">
                    <mxGeometry x="-1171.5" y="384" width="170" height="40" as="geometry"/>
                </mxCell>
                <mxCell id="124" value="WasteDisposed" style="ellipse;whiteSpace=wrap;html=1;rounded=0;" parent="1" vertex="1">
                    <mxGeometry x="-1256.5" y="489" width="170" height="40" as="geometry"/>
                </mxCell>
                <mxCell id="125" value="WasteCharge" style="ellipse;whiteSpace=wrap;html=1;rounded=0;" parent="1" vertex="1">
                    <mxGeometry x="-1451.5" y="489" width="170" height="40" as="geometry"/>
                </mxCell>
                <mxCell id="126" value="UtilityID" style="ellipse;whiteSpace=wrap;html=1;rounded=0;" parent="1" vertex="1">
                    <mxGeometry x="-1361.5" y="284" width="170" height="40" as="geometry"/>
                </mxCell>
                <mxCell id="134" value="BillNum" style="ellipse;whiteSpace=wrap;html=1;rounded=0;" parent="1" vertex="1">
                    <mxGeometry x="-1459" y="597.5" width="170" height="40" as="geometry"/>
                </mxCell>
                <mxCell id="135" value="RequestNum" style="ellipse;whiteSpace=wrap;html=1;rounded=0;" parent="1" vertex="1">
                    <mxGeometry x="-1549" y="657.5" width="170" height="40" as="geometry"/>
                </mxCell>
                <mxCell id="139" value="LeaseID" style="ellipse;whiteSpace=wrap;html=1;rounded=0;" parent="1" vertex="1">
                    <mxGeometry x="-1549" y="727.5" width="170" height="40" as="geometry"/>
                </mxCell>
                <mxCell id="141" value="Description" style="ellipse;whiteSpace=wrap;html=1;rounded=0;" parent="1" vertex="1">
                    <mxGeometry x="-1359" y="777.5" width="170" height="40" as="geometry"/>
                </mxCell>
                <mxCell id="142" value="Status" style="ellipse;whiteSpace=wrap;html=1;rounded=0;" parent="1" vertex="1">
                    <mxGeometry x="-1174" y="727.5" width="170" height="40" as="geometry"/>
                </mxCell>
                <mxCell id="143" value="AssignedTechnician" style="ellipse;whiteSpace=wrap;html=1;rounded=0;" parent="1" vertex="1">
                    <mxGeometry x="-1279" y="597.5" width="170" height="40" as="geometry"/>
                </mxCell>
                <mxCell id="144" value="Charges" style="ellipse;whiteSpace=wrap;html=1;rounded=0;" parent="1" vertex="1">
                    <mxGeometry x="-1174" y="657.5" width="170" height="40" as="geometry"/>
                </mxCell>
                <mxCell id="155" value="UserID" style="ellipse;whiteSpace=wrap;html=1;rounded=0;" parent="1" vertex="1">
                    <mxGeometry x="173" y="430" width="170" height="40" as="geometry"/>
                </mxCell>
                <mxCell id="157" value="LocationNum" style="ellipse;whiteSpace=wrap;html=1;rounded=0;" parent="1" vertex="1">
                    <mxGeometry x="170" y="490" width="170" height="40" as="geometry"/>
                </mxCell>
                <mxCell id="158" value="PaymentOption" style="ellipse;whiteSpace=wrap;html=1;rounded=0;" parent="1" vertex="1">
                    <mxGeometry x="508" y="430" width="170" height="40" as="geometry"/>
                </mxCell>
                <mxCell id="159" value="Duration" style="ellipse;whiteSpace=wrap;html=1;rounded=0;" parent="1" vertex="1">
                    <mxGeometry x="508" y="490" width="170" height="40" as="geometry"/>
                </mxCell>
                <mxCell id="160" value="Status" style="ellipse;whiteSpace=wrap;html=1;rounded=0;" parent="1" vertex="1">
                    <mxGeometry x="240" y="374" width="170" height="40" as="geometry"/>
                </mxCell>
                <mxCell id="bOpaRwKgyF10Jv1H8EBL-167" value="&lt;span style=&quot;font-size: 50px;&quot;&gt;Utility and Maintenance Charges&lt;/span&gt;" style="text;html=1;align=center;verticalAlign=middle;resizable=0;points=[];autosize=1;strokeColor=#001DBC;fillColor=#0050ef;fontColor=#ffffff;" parent="1" vertex="1">
                    <mxGeometry x="-1649" y="17.5" width="750" height="70" as="geometry"/>
                </mxCell>
                <mxCell id="bOpaRwKgyF10Jv1H8EBL-168" value="&lt;span style=&quot;font-size: 50px;&quot;&gt;Bills and Receipts&lt;/span&gt;" style="text;html=1;align=center;verticalAlign=middle;resizable=0;points=[];autosize=1;strokeColor=#001DBC;fillColor=#0050ef;fontColor=#ffffff;" parent="1" vertex="1">
                    <mxGeometry x="-635" y="17.5" width="420" height="70" as="geometry"/>
                </mxCell>
                <mxCell id="bOpaRwKgyF10Jv1H8EBL-169" value="&lt;span style=&quot;font-size: 50px;&quot;&gt;Leases and Lease Requests&lt;/span&gt;" style="text;html=1;align=center;verticalAlign=middle;resizable=0;points=[];autosize=1;strokeColor=#001DBC;fillColor=#0050ef;fontColor=#ffffff;" parent="1" vertex="1">
                    <mxGeometry x="95" y="17.5" width="660" height="70" as="geometry"/>
                </mxCell>
                <mxCell id="bOpaRwKgyF10Jv1H8EBL-170" value="&lt;span style=&quot;font-size: 50px;&quot;&gt;Properties and Users&lt;/span&gt;" style="text;html=1;align=center;verticalAlign=middle;resizable=0;points=[];autosize=1;strokeColor=#001DBC;fillColor=#0050ef;fontColor=#ffffff;" parent="1" vertex="1">
                    <mxGeometry x="1030" y="17.5" width="490" height="70" as="geometry"/>
                </mxCell>
                <mxCell id="168" value="Purpose" style="ellipse;whiteSpace=wrap;html=1;rounded=0;" vertex="1" parent="1">
                    <mxGeometry x="1028" y="268" width="80" height="40" as="geometry"/>
                </mxCell>
                <mxCell id="171" value="BillNum" style="ellipse;whiteSpace=wrap;html=1;rounded=0;" vertex="1" parent="1">
                    <mxGeometry x="-338.37" y="659.5" width="135" height="40" as="geometry"/>
                </mxCell>
                <mxCell id="173" value="Date" style="ellipse;whiteSpace=wrap;html=1;rounded=0;" vertex="1" parent="1">
                    <mxGeometry x="-465.25" y="550" width="80" height="40" as="geometry"/>
                </mxCell>
                <mxCell id="177" value="LeaseNum" style="ellipse;whiteSpace=wrap;html=1;rounded=0;" vertex="1" parent="1">
                    <mxGeometry x="250" y="208" width="80" height="40" as="geometry"/>
                </mxCell>
                <mxCell id="179" value="LeaseRequestNum" style="ellipse;whiteSpace=wrap;html=1;rounded=0;" vertex="1" parent="1">
                    <mxGeometry x="443" y="374" width="170" height="40" as="geometry"/>
                </mxCell>
                <mxCell id="187" style="edgeStyle=none;html=1;exitX=0.5;exitY=0;exitDx=0;exitDy=0;entryX=0.5;entryY=1;entryDx=0;entryDy=0;" edge="1" parent="1" source="181" target="184">
                    <mxGeometry relative="1" as="geometry"/>
                </mxCell>
                <mxCell id="188" style="edgeStyle=none;html=1;exitX=0;exitY=0.5;exitDx=0;exitDy=0;entryX=1;entryY=0.5;entryDx=0;entryDy=0;" edge="1" parent="1" source="181" target="185">
                    <mxGeometry relative="1" as="geometry"/>
                </mxCell>
                <mxCell id="189" style="edgeStyle=none;html=1;exitX=1;exitY=0.5;exitDx=0;exitDy=0;entryX=0;entryY=0.5;entryDx=0;entryDy=0;" edge="1" parent="1" source="181" target="186">
                    <mxGeometry relative="1" as="geometry"/>
                </mxCell>
                <mxCell id="181" value="Locs" style="whiteSpace=wrap;html=1;" vertex="1" parent="1">
                    <mxGeometry x="1440" y="480" width="120" height="60" as="geometry"/>
                </mxCell>
                <mxCell id="182" value="Name" style="ellipse;whiteSpace=wrap;html=1;rounded=0;" vertex="1" parent="1">
                    <mxGeometry x="1013" y="610.5" width="80" height="40" as="geometry"/>
                </mxCell>
                <mxCell id="184" value="LocationNum" style="ellipse;whiteSpace=wrap;html=1;rounded=0;" vertex="1" parent="1">
                    <mxGeometry x="1460" y="414" width="80" height="40" as="geometry"/>
                </mxCell>
                <mxCell id="185" value="MallNum" style="ellipse;whiteSpace=wrap;html=1;rounded=0;" vertex="1" parent="1">
                    <mxGeometry x="1328" y="488" width="80" height="40" as="geometry"/>
                </mxCell>
                <mxCell id="186" value="StoreNum" style="ellipse;whiteSpace=wrap;html=1;rounded=0;" vertex="1" parent="1">
                    <mxGeometry x="1590" y="490" width="80" height="40" as="geometry"/>
                </mxCell>
                <mxCell id="194" value="FirstName" style="ellipse;whiteSpace=wrap;html=1;rounded=0;" vertex="1" parent="1">
                    <mxGeometry x="1133" y="637.5" width="80" height="40" as="geometry"/>
                </mxCell>
                <mxCell id="197" value="SecondName" style="ellipse;whiteSpace=wrap;html=1;rounded=0;" vertex="1" parent="1">
                    <mxGeometry x="1223" y="637.5" width="80" height="40" as="geometry"/>
                </mxCell>
            </root>
        </mxGraphModel>
    </diagram>
</mxfile>